PathFileType	4	(X/Y/Z)	./resultDataOpenSim/trcMotMarkerGrf/sub06/qtm-02-03.trc
DataRate	CameraRate	NumFrames	NumMarkers	Units	OrigDataRate	OrigDataStartFrame	OrigNumFrames
250.000000	250.000000	10	24	m	250.000000	1	516
Frame#	Time	L.Toe.Tip			R.Toe.Tip			L.Ankle.Lat			R.Ankle.Lat			L.Ankle.Med			R.Ankle.Med			L.Heel			R.Heel			L.Knee.Lat			R.Knee.Lat			L.Knee.Med			R.Knee.Med			L.Thigh.Upper			R.Thigh.Upper			L.ASIS			R.ASIS			V.Sacral			L.Acromium			R.Acromium			C7			L.Elbow			R.Elbow			L.Wrist.Lat			R.Wrist.Lat
		X1	Y1	Z1	X2	Y2	Z2	X3	Y3	Z3	X4	Y4	Z4	X5	Y5	Z5	X6	Y6	Z6	X7	Y7	Z7	X8	Y8	Z8	X9	Y9	Z9	X10	Y10	Z10	X11	Y11	Z11	X12	Y12	Z12	X13	Y13	Z13	X14	Y14	Z14	X15	Y15	Z15	X16	Y16	Z16	X17	Y17	Z17	X18	Y18	Z18	X19	Y19	Z19	X20	Y20	Z20	X21	Y21	Z21	X22	Y22	Z22	X23	Y23	Z23	X24	Y24	Z24

1	0	-1.5495379	0.032458496	-0.068412933	-1.1739613	0.066463654	0.1405533	-1.6736766	0.069741339	-0.079679775	-1.3058654	0.082480764	0.14237086	-1.6619665	0.081746889	0.0040647584	-1.2776822	0.10524909	0.060393076	NaN	NaN	NaN	-1.3471768	0.053711966	0.069465049	-1.5446235	0.41976262	-0.099085284	-1.279344	0.4749077	0.15635989	-1.5569193	0.4213295	0.020092662	-1.2988636	0.45401911	0.030840951	-1.480276	0.80444428	-0.16813294	-1.4621199	0.80118298	0.18481538	-1.4010684	0.84483279	-0.12584334	-1.384115	0.85178382	0.11741629	-1.5772746	0.92923478	0.015749612	-1.4168518	1.3391114	-0.17661072	-1.4249075	1.3145204	0.18406424	-1.4944812	1.366624	0.0030343884	-1.4491801	1.0193061	-0.24797022	-1.5425648	1.0178337	0.2208553	-1.2509704	0.86622912	-0.23927536	-1.4313464	0.80898694	0.28071529
2	0.004	-1.5495624	0.03244791	-0.068429503	-1.1553755	0.06819238	0.14037976	-1.6734225	0.06997261	-0.079702152	-1.2877684	0.080705022	0.14235887	-1.6615169	0.082020451	0.0040456022	-1.2602579	0.10432471	0.060148121	NaN	NaN	NaN	-1.3282538	0.051079289	0.069493715	-1.5426664	0.41936813	-0.099247135	-1.2727953	0.47384214	0.15602787	-1.5548624	0.42103338	0.019938321	-1.2922539	0.45233051	0.030369266	-1.4753345	0.80332292	-0.1684555	-1.4560215	0.800173	0.18496002	-1.3955675	0.8434469	-0.12599341	-1.3780822	0.85046672	0.11742126	-1.5716615	0.92762739	0.015560124	-1.4111719	1.3377528	-0.1765615	-1.4196438	1.3129943	0.18418458	-1.4889043	1.3653231	0.0031233034	-1.4417405	1.0176608	-0.24852293	-1.5396595	1.0176714	0.22174894	-1.2420195	0.86661821	-0.23829707	-1.4292225	0.80711176	0.28115498
3	0.008	-1.5495718	0.032433614	-0.068449924	-1.1369135	0.07003076	0.14017157	-1.6730794	0.070223153	-0.079792634	-1.2695802	0.079148392	0.14243466	-1.6610623	0.082339731	0.0040195517	-1.2431183	0.10357703	0.060128306	NaN	NaN	NaN	-1.3094309	0.048507575	0.069661974	-1.5406347	0.4189324	-0.099414592	-1.2662651	0.47267219	0.15570313	-1.5525896	0.42076278	0.019765809	-1.2856447	0.45056347	0.029889692	-1.4704219	0.80212312	-0.16875848	-1.450031	0.79898924	0.18499587	-1.3899936	0.84210812	-0.12610167	-1.3719478	0.84909465	0.11742917	-1.5653067	0.92591596	0.015721065	-1.4054946	1.3363538	-0.17652937	-1.4143335	1.3114366	0.18429992	-1.4833556	1.3640045	0.0033107155	-1.4344402	1.0159433	-0.24941091	-1.53655	1.0173721	0.2225288	-1.2330811	0.86696699	-0.23731397	-1.4270452	0.80522573	0.28159334
4	0.012	-1.5495639	0.032412788	-0.068471222	-1.1185918	0.072048438	0.13991542	-1.6726875	0.070505882	-0.079927884	-1.2511952	0.077981553	0.14265498	-1.6605963	0.082731448	0.0039798898	-1.2261859	0.10309722	0.060303498	NaN	NaN	NaN	-1.2907415	0.046139435	0.069974056	-1.5384962	0.41843472	-0.099590195	-1.259776	0.47134765	0.15535892	-1.5501151	0.42050192	0.01957486	-1.2790286	0.4486713	0.029395433	-1.4654829	0.80081366	-0.16896306	-1.444193	0.79757328	0.18489767	-1.384333	0.84080363	-0.12617165	-1.3656995	0.84763812	0.11744938	-1.5575274	0.92403667	0.016620011	-1.3998169	1.3348888	-0.17651785	-1.4089652	1.3098366	0.18441335	-1.4778161	1.3626492	0.0035626896	-1.4272814	1.0141235	-0.25068355	-1.5329959	1.0167812	0.22304172	-1.2241574	0.86724987	-0.23632285	-1.4247696	0.8033144	0.28202674
5	0.016	-1.5495484	0.032384131	-0.068486601	-1.1004272	0.074249939	0.13962708	-1.6724241	0.070820681	-0.079974245	-1.2325947	0.077288606	0.14304217	-1.6601043	0.08319229	0.0039240325	-1.2093325	0.10289341	0.06053258	NaN	NaN	NaN	-1.2722162	0.044153017	0.070332223	-1.5362466	0.41787542	-0.099765971	-1.2533869	0.46986725	0.15495252	-1.547574	0.4202084	0.019378906	-1.2724139	0.44665578	0.028874453	-1.4604307	0.79939336	-0.16896616	-1.438529	0.79595874	0.18469085	-1.3786469	0.83948136	-0.12625092	-1.3593956	0.84609553	0.11748155	-1.5483419	0.92203296	0.018326032	-1.3941334	1.3333556	-0.1765129	-1.4035684	1.3082012	0.18453705	-1.4722409	1.3612464	0.0037683164	-1.4201015	1.0122351	-0.2519871	-1.5288184	1.0157854	0.22315684	-1.2152658	0.86746089	-0.23532215	-1.4223867	0.80136852	0.2824496
6	0.02	-1.5495355	0.032347515	-0.068490828	-1.0824744	0.076608438	0.1393177	-1.6723868	0.071158134	-0.079849436	-1.2139314	0.077031589	0.14356704	-1.6595806	0.083688621	0.0038569849	-1.1926107	0.10294573	0.060754349	NaN	NaN	NaN	-1.2538948	0.042634512	0.070676463	-1.5338738	0.41726323	-0.099930368	-1.2471375	0.46824637	0.15446732	-1.5450054	0.41983512	0.019194196	-1.2658142	0.44454702	0.02830484	-1.4552497	0.79785755	-0.16875381	-1.4330651	0.79418036	0.18438194	-1.3730232	0.83809317	-0.12639744	-1.3530637	0.84447796	0.11750968	-1.5388333	0.92004934	0.020311005	-1.3884223	1.3317657	-0.17649884	-1.3981525	1.3065318	0.18467845	-1.4665986	1.3598009	0.0038835418	-1.4127018	1.0103373	-0.25287413	-1.5240187	1.0143928	0.22287048	-1.2064252	0.86760623	-0.23431342	-1.4199149	0.79939226	0.28286125
7	0.024	-1.5495233	0.032304594	-0.06848929	-1.0648035	0.079109531	0.13896001	-1.672444	0.071510551	-0.079651382	-1.1955136	0.077083138	0.14414927	-1.6590486	0.084168866	0.0037865019	-1.1761362	0.1032455	0.060978898	NaN	NaN	NaN	-1.2358413	0.041551897	0.071021111	-1.5313711	0.41660771	-0.10008686	-1.2409883	0.4665081	0.15392402	-1.5423612	0.41935136	0.019032509	-1.2592417	0.44237928	0.027666964	-1.4500281	0.79624397	-0.16845449	-1.427794	0.7922747	0.18397314	-1.3675089	0.83662129	-0.12663423	-1.3466909	0.84279965	0.11751776	-1.5303731	0.91824382	0.021863147	-1.3826621	1.3301302	-0.17647203	-1.3926904	1.3048203	0.18482846	-1.4608931	1.3583326	0.0039554465	-1.4050615	1.0084608	-0.25324945	-1.5187746	1.0127257	0.22231369	-1.1976486	0.86769245	-0.23330762	-1.4173737	0.79740141	0.28326747
8	0.028	-1.5494836	0.032261359	-0.068515627	-1.04748	0.081772197	0.13851912	-1.6724101	0.071875396	-0.079526759	-1.1776191	0.077322153	0.14470535	-1.658547	0.084593397	0.0037158019	-1.1599473	0.10380306	0.061224231	NaN	NaN	NaN	-1.218131	0.040827118	0.07138629	-1.5287581	0.41591626	-0.10025485	-1.2348671	0.46467879	0.15335345	-1.5396234	0.41876685	0.018897374	-1.2527013	0.44017883	0.026961231	-1.4448803	0.79465751	-0.1682239	-1.4226502	0.79029495	0.18349732	-1.3620576	0.83508604	-0.12692965	-1.3402707	0.84107392	0.11749968	-1.5236312	0.91672662	0.022674306	-1.3768519	1.3284494	-0.17643551	-1.3871669	1.303067	0.18497537	-1.455141	1.3568588	0.004046924	-1.3973339	1.006594	-0.25335891	-1.513295	1.01092	0.22164423	-1.1889401	0.86772156	-0.23231915	-1.4147692	0.79540627	0.28367126
9	0.032	-1.5493567	0.03223049	-0.068639595	-1.0305807	0.084653066	0.13801143	-1.6722331	0.072254282	-0.079519595	-1.1603832	0.077683806	0.14517682	-1.6580854	0.084962655	0.0036435429	-1.1440093	0.10462972	0.061480861	NaN	NaN	NaN	-1.2008228	0.040379433	0.071760402	-1.5260569	0.41519257	-0.10045096	-1.228755	0.46278415	0.1527743	-1.536826	0.41811272	0.018789966	-1.2461854	0.43796677	0.026206197	-1.4398565	0.79319373	-0.16805811	-1.4175597	0.78826043	0.18299064	-1.3565765	0.83352879	-0.12723869	-1.3338128	0.83931544	0.11745673	-1.5184733	0.91553162	0.022843395	-1.3710053	1.3267247	-0.17639135	-1.3816098	1.3012931	0.18512442	-1.449358	1.3553792	0.0041709973	-1.3896518	1.0047121	-0.25343079	-1.5077132	1.0090557	0.22096385	-1.1802964	0.86769356	-0.23134905	-1.4120996	0.79340838	0.28406774
10	0.036	-1.549091	0.032226373	-0.068921817	-1.0141832	0.087830856	0.13748589	-1.6719547	0.072658562	-0.079597914	-1.1438194	0.078159346	0.14553292	-1.6576359	0.085314887	0.0035690237	-1.1283204	0.10570505	0.061709706	NaN	NaN	NaN	-1.1839505	0.040130972	0.072115178	-1.5232595	0.41443959	-0.10067963	-1.2226777	0.46084776	0.1522026	-1.5339736	0.41739702	0.018706306	-1.2396762	0.43576827	0.025416663	-1.4349178	0.7918724	-0.1677883	-1.4124466	0.7861581	0.1824668	-1.3510219	0.83198204	-0.12754633	-1.3273245	0.83753514	0.11739193	-1.5142182	0.91454038	0.022601311	-1.3651306	1.3249716	-0.17633702	-1.376055	1.2995258	0.18528992	-1.4435599	1.3538819	0.0042824332	-1.3820312	1.0028021	-0.25351075	-1.5021039	1.0071761	0.22033174	-1.1717068	0.86760984	-0.23038017	-1.409364	0.79141138	0.28445615
